<svg width="450" height="350" viewBox="0 0 450 350" fill="none" xmlns="http://www.w3.org/2000/svg">
<g clip-path="url(#clip0_11_305)">
<path d="M256.232 170.884C266.358 170.884 274.567 162.675 274.567 152.549C274.567 142.423 266.358 134.215 256.232 134.215C246.106 134.215 237.898 142.423 237.898 152.549C237.898 162.675 246.106 170.884 256.232 170.884Z" fill="#E6E6E6"/>
<path d="M301.167 176.11L282.007 156.95C283.475 154.666 284.471 152.11 284.933 149.434C285.396 146.758 285.317 144.016 284.701 141.371C284.085 138.726 282.944 136.232 281.346 134.036C279.749 131.84 277.726 129.987 275.399 128.587C271.017 125.969 265.812 125.093 260.815 126.131C255.818 127.169 251.392 130.046 248.416 134.192C245.676 138.032 244.361 142.707 244.695 147.413C245.029 152.118 246.992 156.56 250.247 159.975C253.501 163.39 257.843 165.565 262.527 166.125C267.211 166.685 271.944 165.596 275.912 163.045L295.072 182.205C295.88 183.012 296.976 183.466 298.119 183.465C299.261 183.465 300.357 183.011 301.165 182.203C301.973 181.395 302.427 180.299 302.427 179.157C302.428 178.014 301.974 176.918 301.167 176.11V176.11ZM275.197 156.235C272.822 158.609 269.699 160.086 266.357 160.415C263.016 160.745 259.664 159.905 256.873 158.04C254.081 156.174 252.022 153.399 251.048 150.186C250.073 146.973 250.243 143.522 251.527 140.42C252.812 137.318 255.133 134.758 258.094 133.175C261.055 131.592 264.473 131.085 267.766 131.74C271.059 132.395 274.023 134.172 276.153 136.767C278.283 139.362 279.447 142.616 279.447 145.973C279.449 147.879 279.075 149.767 278.346 151.528C277.616 153.289 276.546 154.889 275.197 156.235V156.235Z" fill="#3F3D56"/>
<path d="M440.054 204.372C489.054 258.56 347.013 336.652 232.241 336.652C117.469 336.652 38.0649 276.144 24.428 204.372C-8.63657 30.3479 306.147 -80.2606 232.241 72.0914C124.516 294.162 401.466 161.698 440.054 204.372Z" fill="#E6E6E6"/>
<path d="M418.069 217.196C467.068 271.384 325.028 349.477 210.256 349.477C95.4841 349.477 16.0798 288.969 2.44294 217.196C-30.6217 43.1725 284.161 -67.4361 210.256 84.916C102.531 306.987 379.481 174.522 418.069 217.196Z" fill="#3F3D56"/>
<path d="M68.5173 90.1501C34.1348 88.6362 7.47618 81.2197 7.82641 73.2654C8.03638 68.4966 17.767 64.6619 34.523 62.7449C34.583 62.7376 34.6438 62.7423 34.7019 62.7586C34.7601 62.775 34.8144 62.8026 34.8618 62.8401C34.9093 62.8775 34.9488 62.9239 34.9782 62.9767C35.0076 63.0295 35.0263 63.0875 35.0331 63.1476C35.04 63.2076 35.0349 63.2683 35.0182 63.3264C35.0015 63.3844 34.9734 63.4386 34.9357 63.4858C34.898 63.5329 34.8513 63.5722 34.7983 63.6012C34.7453 63.6303 34.6871 63.6485 34.6271 63.655C18.8429 65.461 8.92415 69.1589 8.74155 73.3057C8.42484 80.4987 35.8172 87.7934 68.5576 89.2349C101.298 90.6765 129.225 85.8176 129.542 78.6246C129.725 74.4604 120.108 69.8922 104.444 66.7031C104.384 66.6912 104.328 66.6678 104.278 66.6342C104.228 66.6006 104.185 66.5575 104.152 66.5073C104.119 66.4571 104.096 66.4008 104.084 66.3416C104.073 66.2825 104.073 66.2216 104.085 66.1626C104.097 66.1035 104.12 66.0474 104.154 65.9975C104.188 65.9476 104.231 65.9048 104.281 65.8716C104.332 65.8384 104.388 65.8155 104.447 65.8041C104.507 65.7928 104.567 65.7932 104.626 65.8054C121.253 69.1904 130.668 73.8776 130.457 78.6649C130.107 86.6192 102.9 91.664 68.5173 90.1501Z" fill="#FF6000"/>
<path d="M37.9805 91.4823C40.8568 96.9463 45.1175 101.559 50.3365 104.859C55.5554 108.16 61.5495 110.031 67.719 110.287C73.8885 110.543 80.0171 109.175 85.4916 106.318C90.9661 103.462 95.5945 99.2183 98.9137 94.0114C78.5716 94.2856 58.2298 93.4412 37.9805 91.4823V91.4823Z" fill="#FF6000"/>
<path d="M102.717 84.3769C104.448 79.1847 104.947 73.6608 104.174 68.2425C103.401 62.8242 101.378 57.6602 98.2637 53.1591C95.1499 48.658 91.0312 44.9435 86.2336 42.3094C81.4359 39.6754 76.0911 38.1941 70.622 37.9829C65.1529 37.7717 59.7097 38.8364 54.7232 41.0926C49.7368 43.3488 45.3439 46.7347 41.8922 50.9822C38.4405 55.2297 36.0249 60.2223 34.8364 65.5649C33.6479 70.9075 33.7192 76.4533 35.0447 81.7636C57.3942 85.5576 80.1415 86.436 102.717 84.3769V84.3769Z" fill="#FF6000"/>
<path d="M77.3292 60.7339C79.6058 60.7339 81.4514 58.8883 81.4514 56.6117C81.4514 54.3351 79.6058 52.4895 77.3292 52.4895C75.0526 52.4895 73.207 54.3351 73.207 56.6117C73.207 58.8883 75.0526 60.7339 77.3292 60.7339Z" fill="white"/>
<path d="M56.1137 76.7604C59.9081 76.7604 62.984 73.6845 62.984 69.8901C62.984 66.0957 59.9081 63.0198 56.1137 63.0198C52.3194 63.0198 49.2434 66.0957 49.2434 69.8901C49.2434 73.6845 52.3194 76.7604 56.1137 76.7604Z" fill="white"/>
<path d="M159.806 70.0304C162.335 70.0304 164.386 67.9799 164.386 65.4503C164.386 62.9208 162.335 60.8702 159.806 60.8702C157.276 60.8702 155.226 62.9208 155.226 65.4503C155.226 67.9799 157.276 70.0304 159.806 70.0304Z" fill="#FF6000"/>
<path d="M56.2931 210.185C57.8109 210.185 59.0412 208.955 59.0412 207.437C59.0412 205.919 57.8109 204.689 56.2931 204.689C54.7753 204.689 53.5449 205.919 53.5449 207.437C53.5449 208.955 54.7753 210.185 56.2931 210.185Z" fill="#E6E6E6"/>
<path d="M248.662 304.537C250.18 304.537 251.41 303.307 251.41 301.789C251.41 300.272 250.18 299.041 248.662 299.041C247.144 299.041 245.914 300.272 245.914 301.789C245.914 303.307 247.144 304.537 248.662 304.537Z" fill="#E6E6E6"/>
<path d="M69.5755 157.055C70.3344 157.055 70.9496 156.439 70.9496 155.68C70.9496 154.922 70.3344 154.306 69.5755 154.306C68.8166 154.306 68.2014 154.922 68.2014 155.68C68.2014 156.439 68.8166 157.055 69.5755 157.055Z" fill="#E6E6E6"/>
<path d="M183.165 259.651C183.924 259.651 184.539 259.036 184.539 258.277C184.539 257.518 183.924 256.903 183.165 256.903C182.406 256.903 181.791 257.518 181.791 258.277C181.791 259.036 182.406 259.651 183.165 259.651Z" fill="#E6E6E6"/>
<path d="M389.732 246.369C390.491 246.369 391.107 245.754 391.107 244.995C391.107 244.236 390.491 243.621 389.732 243.621C388.974 243.621 388.358 244.236 388.358 244.995C388.358 245.754 388.974 246.369 389.732 246.369Z" fill="#E6E6E6"/>
<path d="M325.151 287.133C325.91 287.133 326.526 286.518 326.526 285.759C326.526 285 325.91 284.385 325.151 284.385C324.393 284.385 323.777 285 323.777 285.759C323.777 286.518 324.393 287.133 325.151 287.133Z" fill="#E6E6E6"/>
<path d="M257.822 237.666C258.581 237.666 259.196 237.051 259.196 236.292C259.196 235.533 258.581 234.918 257.822 234.918C257.063 234.918 256.448 235.533 256.448 236.292C256.448 237.051 257.063 237.666 257.822 237.666Z" fill="#E6E6E6"/>
<path d="M170.798 102.092C171.557 102.092 172.172 101.477 172.172 100.718C172.172 99.9591 171.557 99.3439 170.798 99.3439C170.04 99.3439 169.424 99.9591 169.424 100.718C169.424 101.477 170.04 102.092 170.798 102.092Z" fill="#E6E6E6"/>
<path d="M181.791 34.305C182.55 34.305 183.165 33.6897 183.165 32.9309C183.165 32.172 182.55 31.5568 181.791 31.5568C181.032 31.5568 180.417 32.172 180.417 32.9309C180.417 33.6897 181.032 34.305 181.791 34.305Z" fill="#E6E6E6"/>
<path d="M175.378 319.652C176.137 319.652 176.753 319.037 176.753 318.278C176.753 317.519 176.137 316.904 175.378 316.904C174.62 316.904 174.004 317.519 174.004 318.278C174.004 319.037 174.62 319.652 175.378 319.652Z" fill="#E6E6E6"/>
<path d="M107.591 290.797C108.35 290.797 108.965 290.182 108.965 289.423C108.965 288.664 108.35 288.049 107.591 288.049C106.832 288.049 106.217 288.664 106.217 289.423C106.217 290.182 106.832 290.797 107.591 290.797Z" fill="#E6E6E6"/>
<path d="M322.403 241.331C323.162 241.331 323.777 240.715 323.777 239.956C323.777 239.198 323.162 238.582 322.403 238.582C321.644 238.582 321.029 239.198 321.029 239.956C321.029 240.715 321.644 241.331 322.403 241.331Z" fill="#E6E6E6"/>
<path d="M67.9584 107.085C70.235 107.085 72.0806 105.239 72.0806 102.963C72.0806 100.686 70.235 98.8403 67.9584 98.8403C65.6817 98.8403 63.8362 100.686 63.8362 102.963C63.8362 105.239 65.6817 107.085 67.9584 107.085Z" fill="white"/>
<path d="M161.18 166.215C161.18 178.527 142.145 207.215 136.582 215.336C136.414 215.582 136.189 215.783 135.926 215.922C135.663 216.06 135.37 216.133 135.073 216.133C134.775 216.133 134.483 216.06 134.219 215.922C133.956 215.783 133.731 215.582 133.563 215.336C128.001 207.215 108.966 178.527 108.966 166.215C108.966 162.787 109.641 159.392 110.953 156.224C112.265 153.057 114.188 150.179 116.612 147.755C119.036 145.33 121.915 143.407 125.082 142.095C128.249 140.783 131.644 140.108 135.073 140.108C138.501 140.108 141.896 140.783 145.064 142.095C148.231 143.407 151.109 145.33 153.533 147.755C155.958 150.179 157.881 153.057 159.193 156.224C160.505 159.392 161.18 162.787 161.18 166.215V166.215Z" fill="white"/>
<path d="M135.073 177.666C142.408 177.666 148.355 171.719 148.355 164.383C148.355 157.047 142.408 151.1 135.073 151.1C127.737 151.1 121.79 157.047 121.79 164.383C121.79 171.719 127.737 177.666 135.073 177.666Z" fill="#FF6000"/>
<path d="M134.844 230.338C143.318 230.338 150.187 229.005 150.187 227.361C150.187 225.717 143.318 224.384 134.844 224.384C126.37 224.384 119.5 225.717 119.5 227.361C119.5 229.005 126.37 230.338 134.844 230.338Z" fill="white"/>
<path d="M374.136 145.614C374.02 145.839 373.922 146.073 373.842 146.314L351.957 152.395L348.013 148.535L341.41 153.726L347.728 161.237C348.239 161.844 348.932 162.269 349.704 162.448C350.477 162.627 351.287 162.551 352.012 162.231L375.653 151.795C376.455 152.352 377.408 152.651 378.384 152.653C379.361 152.655 380.314 152.36 381.119 151.807C381.923 151.254 382.54 150.469 382.888 149.556C383.235 148.644 383.297 147.647 383.064 146.699C382.831 145.751 382.315 144.896 381.585 144.248C380.855 143.6 379.944 143.19 378.975 143.072C378.006 142.955 377.024 143.135 376.159 143.589C375.295 144.043 374.589 144.749 374.136 145.614H374.136Z" fill="#FFB8B8"/>
<path d="M351.186 152.752L342.971 159.145C342.737 159.327 342.467 159.457 342.179 159.525C341.891 159.593 341.591 159.598 341.301 159.54C341.01 159.482 340.736 159.362 340.496 159.188C340.256 159.014 340.056 158.791 339.911 158.533L334.805 149.497C333.881 148.296 333.471 146.778 333.665 145.274C333.859 143.771 334.641 142.406 335.839 141.479C337.038 140.552 338.555 140.138 340.059 140.327C341.563 140.517 342.93 141.296 343.86 142.492L351.343 149.634C351.557 149.839 351.725 150.087 351.835 150.363C351.944 150.638 351.993 150.933 351.978 151.229C351.963 151.525 351.885 151.814 351.748 152.077C351.611 152.339 351.419 152.57 351.186 152.752V152.752Z" fill="#FF6000"/>
<path d="M376.235 142.59L384.565 146.338C384.914 146.495 385.186 146.784 385.322 147.141C385.458 147.499 385.446 147.896 385.289 148.245L384.303 150.437C384.419 150.49 384.509 150.586 384.554 150.705C384.599 150.824 384.596 150.956 384.544 151.073L384.149 151.95C384.097 152.066 384 152.156 383.881 152.201C383.762 152.246 383.63 152.243 383.514 152.191L383.119 153.068C383.235 153.12 383.326 153.217 383.371 153.336C383.416 153.455 383.412 153.587 383.36 153.703L382.966 154.58C382.913 154.696 382.817 154.787 382.698 154.832C382.578 154.877 382.446 154.873 382.33 154.821L377.004 166.66C376.847 167.008 376.558 167.281 376.2 167.416C375.843 167.552 375.446 167.54 375.097 167.383L366.766 163.635C366.417 163.478 366.145 163.189 366.01 162.831C365.874 162.474 365.886 162.077 366.043 161.728L374.328 143.313C374.485 142.964 374.774 142.692 375.131 142.556C375.489 142.421 375.886 142.433 376.235 142.59V142.59Z" fill="#3F3D56"/>
<path d="M368.279 162.469L374.962 165.478C375.297 165.628 375.677 165.639 376.02 165.51C376.363 165.38 376.641 165.12 376.793 164.786L379.88 157.921L380.952 155.541L383.745 149.329C383.895 148.995 383.906 148.615 383.776 148.273C383.646 147.93 383.386 147.653 383.053 147.502L380.952 146.555L376.365 144.492C376.031 144.343 375.65 144.332 375.308 144.463C374.965 144.594 374.689 144.855 374.539 145.189L371.837 151.194L368.76 158.031L367.587 160.642C367.437 160.976 367.426 161.356 367.555 161.698C367.685 162.041 367.945 162.318 368.279 162.469V162.469Z" fill="#F2F2F2"/>
<path d="M354.315 247.534L359.93 247.534L362.602 225.875L354.314 225.875L354.315 247.534Z" fill="#FFB8B8"/>
<path d="M352.883 245.701L363.941 245.701H363.941C364.867 245.701 365.783 245.883 366.638 246.237C367.493 246.591 368.27 247.11 368.925 247.765C369.579 248.419 370.098 249.196 370.452 250.051C370.806 250.906 370.989 251.822 370.989 252.748V252.977L352.883 252.977L352.883 245.701Z" fill="#2F2E41"/>
<path d="M368.971 246.16L374.587 246.16L377.258 224.501L368.97 224.501L368.971 246.16Z" fill="#FFB8B8"/>
<path d="M367.539 244.327L378.598 244.327H378.598C379.524 244.327 380.44 244.509 381.295 244.863C382.15 245.217 382.927 245.736 383.581 246.391C384.236 247.045 384.755 247.822 385.109 248.677C385.463 249.532 385.645 250.448 385.645 251.374V251.603L367.54 251.603L367.539 244.327Z" fill="#2F2E41"/>
<path d="M329.127 196.71C330.324 200.256 332.593 203.343 335.621 205.543C338.649 207.743 342.286 208.948 346.028 208.99L346.312 208.994C349.211 209.077 352.614 208.142 355.953 206.8C362.549 204.148 368.883 199.902 370.564 198.735L367.716 226.12L366.561 237.222C366.532 237.509 366.563 237.799 366.653 238.074C366.743 238.348 366.889 238.601 367.083 238.815C367.276 239.03 367.512 239.201 367.776 239.319C368.039 239.437 368.325 239.498 368.613 239.498H375.726C376.182 239.499 376.626 239.348 376.987 239.069C377.348 238.791 377.607 238.401 377.723 237.959L389.467 193.234C389.819 191.895 389.847 190.492 389.55 189.14C389.252 187.788 388.636 186.527 387.754 185.46C386.872 184.393 385.748 183.552 384.476 183.006C383.204 182.46 381.82 182.224 380.439 182.319L356.045 183.991L357.749 177.175L335.975 175.728L335.911 175.774C335.388 176.154 334.88 176.553 334.395 176.969C333.181 177.996 332.104 179.175 331.193 180.478C329.562 182.815 328.522 185.513 328.163 188.34C327.803 191.167 328.134 194.039 329.127 196.71Z" fill="#2F2E41"/>
<path d="M329.127 196.71C330.324 200.257 332.593 203.343 335.621 205.543C338.649 207.743 342.286 208.948 346.028 208.99C349.607 207.178 353.061 205.13 356.366 202.857L355.953 206.8L352.363 241.344C352.333 241.632 352.365 241.922 352.455 242.196C352.544 242.47 352.691 242.723 352.884 242.937C353.077 243.152 353.313 243.323 353.577 243.441C353.841 243.559 354.126 243.62 354.415 243.621H361.528C361.984 243.621 362.427 243.47 362.788 243.192C363.15 242.913 363.409 242.523 363.524 242.082L367.716 226.12L375.268 197.356C375.62 196.017 375.649 194.614 375.351 193.262C375.053 191.91 374.437 190.649 373.555 189.582C372.673 188.515 371.549 187.674 370.277 187.128C369.005 186.582 367.622 186.346 366.241 186.441L341.846 188.113L343.55 181.298L331.193 180.478C329.562 182.815 328.522 185.513 328.163 188.34C327.803 191.167 328.134 194.039 329.127 196.71V196.71Z" fill="#2F2E41"/>
<path d="M334.363 178.55L334.199 178.53L330.4 159.849C330.368 159.687 327.262 143.574 336.783 135.151L336.949 133.998C336.992 133.703 337.098 133.421 337.26 133.17C337.422 132.92 337.636 132.708 337.888 132.549C338.14 132.39 338.424 132.287 338.719 132.248C339.015 132.209 339.315 132.234 339.6 132.323L348.57 135.105C349.078 135.261 349.505 135.608 349.763 136.073C350.021 136.538 350.089 137.084 349.953 137.598L349.081 140.914C350.29 142.334 364.523 159.47 359.565 172.671L357.345 181.352L334.363 178.55Z" fill="#FF6000"/>
<path d="M371.61 163.97C371.395 164.105 371.192 164.257 371.001 164.424L349.063 158.535L347.629 153.206L339.304 154.319L340.926 163.999C341.058 164.781 341.439 165.5 342.013 166.047C342.587 166.594 343.323 166.94 344.11 167.033L369.774 170.064C370.182 170.951 370.85 171.693 371.69 172.192C372.529 172.69 373.501 172.921 374.475 172.853C375.449 172.786 376.379 172.423 377.142 171.814C377.905 171.205 378.465 170.378 378.747 169.443C379.028 168.509 379.018 167.51 378.719 166.581C378.419 165.652 377.844 164.836 377.069 164.242C376.294 163.647 375.357 163.303 374.382 163.255C373.407 163.206 372.44 163.456 371.61 163.97H371.61Z" fill="#FFB8B8"/>
<path d="M348.218 158.449L337.893 159.779C337.599 159.817 337.301 159.791 337.018 159.703C336.735 159.615 336.475 159.468 336.254 159.27C336.034 159.072 335.858 158.829 335.74 158.558C335.622 158.286 335.564 157.992 335.569 157.696L335.766 147.32C335.581 145.816 336 144.3 336.931 143.104C337.862 141.908 339.229 141.13 340.733 140.941C342.236 140.752 343.754 141.167 344.952 142.095C346.15 143.022 346.931 144.388 347.125 145.891L349.938 155.845C350.018 156.13 350.036 156.429 349.991 156.722C349.945 157.015 349.837 157.294 349.674 157.541C349.511 157.788 349.296 157.997 349.045 158.154C348.794 158.311 348.511 158.412 348.218 158.449V158.449Z" fill="#FF6000"/>
<path d="M345.311 129.787C351.524 129.787 356.561 124.75 356.561 118.538C356.561 112.325 351.524 107.288 345.311 107.288C339.099 107.288 334.062 112.325 334.062 118.538C334.062 124.75 339.099 129.787 345.311 129.787Z" fill="#FFB8B8"/>
<path d="M344.72 119.477L343.311 116.912C340.644 127.782 345.356 136.778 345.356 136.778L327.066 128.259L327.24 125.236L325.43 127.289L322.83 125.856L322.487 123.896L320.524 124.382L327.689 111.38C334.643 99.0074 344.752 103.731 344.752 103.731C360.836 102.967 358.872 118.835 358.872 118.835L344.72 119.477Z" fill="#2F2E41"/>
<path d="M216.662 203.31C219.256 201.647 216.102 192.099 209.617 181.983C203.133 171.868 195.773 165.016 193.179 166.678C190.586 168.341 193.74 177.889 200.225 188.005C206.709 198.12 214.069 204.972 216.662 203.31Z" fill="#3F3D56"/>
</g>
<defs>
<clipPath id="clip0_11_305">
<rect width="450" height="349.477" fill="white"/>
</clipPath>
</defs>
</svg>
