<svg width="200" height="46" viewBox="0 0 200 46" fill="none" xmlns="http://www.w3.org/2000/svg">
<path d="M153.173 0.703339C152.89 0.74696 152.475 1.0523 152.236 1.35765C151.799 1.9029 151.799 2.18644 151.799 18.3478V34.7709L152.301 35.3598C152.759 35.8833 152.999 35.9705 154.547 36.0359C156.532 36.145 157.688 35.7306 157.928 34.7928C158.015 34.4874 158.081 30.9105 158.102 26.8102L158.124 19.3729L159.433 18.1297C161.047 16.5812 162.399 15.9487 163.751 16.1014C165.016 16.2322 165.736 16.7993 166.412 18.1297L166.957 19.1984L167.066 27.2246C167.176 34.7709 167.197 35.2726 167.59 35.5561C168.637 36.3195 171.799 36.2322 172.672 35.4253L173.173 34.9454V27.0283C173.173 16.8865 172.955 15.6652 170.643 13.2006C169.444 11.9138 167.852 11.1286 165.714 10.8015C164.275 10.5616 163.817 10.5834 162.465 10.8887C161.592 11.085 160.262 11.5867 159.498 12.001L158.124 12.7644L158.102 7.57357C158.081 4.73824 158.015 2.16463 157.928 1.85928C157.644 0.812389 155.42 0.267136 153.173 0.703339Z" fill="#FFD7BE"/>
<path d="M65.0382 0.965096C64.6456 1.07415 64.1221 1.33587 63.904 1.53216C63.4896 1.90294 63.4678 2.23009 63.4678 7.24645C63.4678 10.1472 63.4024 12.5463 63.337 12.5463C63.2715 12.5463 62.4864 12.1974 61.6358 11.7612C57.9716 9.95092 53.108 10.8233 50.2726 13.7895C45.7143 18.5442 45.9324 30.1472 50.6434 34.2693C53.8931 37.1047 59.2585 37.2355 63.0752 34.5529C63.8168 34.0294 63.8604 34.0294 63.9477 34.7274C64.0567 35.687 64.9945 36.1886 66.7176 36.1886C67.9389 36.2105 68.3533 36.1232 68.855 35.7524L69.4656 35.2944V18.5442V1.79388L68.9204 1.4013C68.2879 0.921474 66.1287 0.681561 65.0382 0.965096ZM68.2661 2.18647C68.4188 2.27371 68.4842 7.66084 68.4842 18.4787C68.4842 32.8081 68.4406 34.5965 68.157 34.3566C68.855 34.0567 68.4842 31.9138 68.4842 18.4787C68.4842 6.76662 69.4656 2.18647 67.5682 2.99345C70.1472 3.14067 67.3173 0.829727 66.1396 1.53216C63.6532 1.2868 64.6456 2.20828 65.3653 1.99018C65.8451 1.85932 67.9607 1.99018 68.2661 2.18647ZM60.4555 13.3153C62.0476 14.0569 64.6892 15.1199 64.3839 15.4253C64.1221 15.687 65.9651 15.7143 64.831 14.7546C62.9117 13.1189 57.012 12.2846 53.9804 13.2225C53.1734 13.4624 52.4755 13.6369 52.4318 13.5714C52.2574 13.3969 55.4907 13.9858 56.4068 13.7895C58.1516 13.4187 58.9506 12.5956 60.4555 13.3153ZM59.9782 16.6903C60.4362 16.9302 61.4177 17.6717 62.1374 18.3479L63.4678 19.5692V23.5823V27.5736L62.2465 28.795C60.6543 30.3653 59.2585 31.085 57.7972 31.085C55.2236 31.085 53.8713 29.2966 53.4351 25.3708C52.9553 21.1832 53.9586 18.0425 56.1614 16.6685C57.0556 16.1014 58.8659 16.1232 59.9782 16.6903ZM52.8026 19.0458C52.301 19.9836 52.0393 23.1679 52.2792 25.3926C52.6718 28.9476 54.0458 31.2595 56.1614 31.9575C57.3173 32.3282 59.4766 32.1538 60.5889 31.5649C61.4613 31.1287 61.5049 31.1069 61.3086 31.4994C61.0251 32.0011 64.4493 29.4438 63.337 29.6401C62.879 29.7274 57.9226 31.6957 57.2246 31.5649C56.1341 31.325 56.145 31.8539 55.0981 30.7852C53.4406 29.1494 52.6281 28.1788 52.4755 24.7328C52.3446 22.0938 52.4973 21.5921 53.217 20.4798C53.6096 19.8691 53.1516 18.4133 52.8026 19.0458Z" fill="#FF6000"/>
<path d="M88.2224 3.45148C87.241 4.28027 87.1974 6.9193 88.1352 7.92258C88.5496 8.38059 88.7241 8.4024 92.9117 8.4024H97.2737V26.2868V44.193L97.7971 44.7165C98.9967 45.916 101.505 45.9815 102.792 44.8255L103.49 44.2148L103.599 26.3522L103.708 8.51145L108.07 8.44602C112.148 8.4024 112.454 8.35878 112.912 7.92258C113.849 7.02835 113.828 4.43294 112.868 3.47329L112.345 2.94984H100.567H88.7895L88.2224 3.45148Z" fill="#FFD7BE"/>
<path d="M0.796083 4.86375L0.0545349 5.6053V20.8725V36.1615L0.599791 36.5759C1.77754 37.5137 5.33261 37.3392 6.05235 36.3359C6.33589 35.9434 6.37951 34.831 6.37951 29.5966V23.3152H7.97165C9.86915 23.3152 10.9815 23.7732 12.0066 24.9292C12.9226 25.9979 13.4242 27.0012 15.4089 31.9303C16.434 34.4603 17.2846 36.2487 17.6118 36.5322C18.5932 37.4265 21.952 37.4701 22.9989 36.6195C23.8277 35.9652 23.6096 34.9183 21.7557 30.5126C19.4438 24.9946 18.7459 23.5769 17.6118 22.2901C16.6958 21.2432 16.6521 21.156 17.0665 21.0251C18.048 20.7198 20.2508 18.3425 20.9051 16.9466C21.4504 15.7471 21.5158 15.3109 21.5158 13.3916C21.5376 10.8179 21.1669 9.57476 19.9455 7.939C18.6151 6.17237 16.8266 5.14729 13.6859 4.34031C13.2061 4.23125 10.2835 4.1222 7.18649 4.1222H1.53763L0.796083 4.86375ZM19.193 9.82014C20.9815 10.2563 17.7645 7.02297 18.6369 8.02624C19.0076 8.44063 18.3315 9.40028 18.6369 10.0546C19.1167 11.0797 19.2148 15.1146 19.193 16.7722C19.193 18.0808 20.2726 15.3981 20.0545 15.8997C19.6401 16.8158 19.6401 16.794 19.6838 14.2203C19.7274 11.2542 19.313 9.98916 17.7426 8.46244C15.5616 6.32504 13.6205 5.88883 6.55399 5.86702C2.45366 5.86702 2.66631 6.79942 3.08071 6.38502C3.14614 6.31959 4.45475 6.38502 7.3337 6.38502C11.2596 6.38502 18.1461 9.58022 19.193 9.82014ZM3.8986 13.9913L4.14396 19.782L8.64232 20.3708C12.8517 21.8703 12.3337 19.4984 13.4678 19.0404C15.1036 18.3643 14.5147 18.2116 12.8353 19.0404C11.6794 19.6293 11.3304 19.6947 8.75682 19.782C5.48529 19.891 4.74374 19.7165 4.54745 18.6914C4.37296 17.819 4.37296 9.83649 4.54745 9.18218C4.63469 8.89865 4.14396 8.76779 4.94003 8.76779C3.65323 8.34794 3.85498 10.5017 3.8986 13.9913ZM12.879 10.0546C14.5147 10.8834 15.2345 12.3665 14.9727 14.3294C14.7765 15.6598 14.0785 16.5759 12.7263 17.252C11.6358 17.819 11.3304 17.8627 8.95312 17.8627H6.37951V13.566V9.29123L9.1276 9.42209C11.3959 9.53114 12.0502 9.6402 12.879 10.0546ZM15.5834 21.8321C17.1538 22.9226 17.8953 24.2313 20.5344 30.4472C22.3882 34.8528 21.9193 35.1255 21.1559 34.7111C20.916 34.5802 21.4286 34.9837 21.4286 34.8528C21.4286 34.5257 28.0425 39.7274 17.9662 24.2422C17.4209 23.2607 16.4013 22.2356 15.2672 21.2978C14.0458 20.3163 14.253 20.8725 15.5834 21.8321ZM5.15813 22.7918C5.22356 22.9881 1.11778 18.4733 1.11778 21.8321C1.11778 26.8703 4.73283 35.0382 4.47111 35.0382C4.31844 35.0382 4.63469 35.0928 4.54745 34.8092C4.37296 34.1767 4.37296 23.5769 4.54745 22.9226C4.70012 22.3556 4.96184 22.2901 5.15813 22.7918Z" fill="#FF6000"/>
<path d="M178.277 11.1505C177.993 11.8266 177.95 13.6586 178.015 24.4111C178.081 35.796 178.124 36.9302 178.473 37.5627C179.106 38.7186 179.891 38.7186 182.792 37.5409C184.166 36.9956 185.344 36.6248 185.431 36.7121C185.518 36.7993 186.238 38.326 187.023 40.1363C188.833 44.2366 188.92 44.3893 189.815 44.3893C190.491 44.3893 195.921 42.2955 196.881 41.6412C197.186 41.4449 197.383 41.0959 197.383 40.7688C197.383 40.4416 196.685 38.5878 195.812 36.603C194.547 33.6586 194.308 32.9825 194.569 32.808C194.744 32.699 195.791 32.2628 196.903 31.8048C199.237 30.8887 200 30.2781 200 29.4056C200 28.7077 198.866 27.53 193.348 22.47C186.499 16.1668 184.995 14.771 183.424 13.3097C180.611 10.6488 180.218 10.3653 179.368 10.3653C178.691 10.3653 178.561 10.4525 178.277 11.1505ZM184.275 15.1854C185.234 16.036 191.385 21.8375 194.656 25C195.987 26.265 197.426 27.639 197.884 28.0316C198.822 28.8604 198.931 29.6019 198.212 30.0818C197.928 30.2562 196.707 30.8015 195.485 31.3249C194.242 31.8266 193.239 32.3282 193.239 32.4373C193.239 32.5463 193.391 32.9171 193.566 33.2661C193.762 33.615 193.893 34.1821 193.871 34.5092C193.85 34.8582 194.089 35.687 194.417 36.4067C194.722 37.1047 194.984 37.759 194.984 37.8462C194.984 37.9989 188.855 40.6815 188.484 40.6815C188.332 40.6815 186.936 37.8898 186.107 35.9487L185.823 35.229L184.776 35.6434C184.209 35.8615 183.119 36.3195 182.356 36.6248C180.698 37.301 180.131 37.3228 179.629 36.7775C179.302 36.4285 179.258 35.338 179.128 26.3522L178.997 16.3413L181.156 15.4471C182.334 14.9454 183.359 14.5311 183.402 14.5311C183.446 14.5092 183.839 14.8146 184.275 15.1854Z" fill="#898181"/>
<path d="M190.376 44.1167C189.94 43.3533 188.986 41.6303 188.659 40.8451L194.956 37.9008L196.756 40.8451L190.376 44.1167Z" stroke="black"/>
<path d="M117.23 10.8015C111.45 11.8266 108.048 16.0141 107.59 22.6008C107.372 25.8069 108.157 29.4711 109.553 31.6739C110.316 32.8953 112.148 34.4656 113.544 35.1199C117.056 36.7775 123.359 36.6903 127.328 34.9018C128.899 34.2039 129.226 33.6586 129.226 31.8266C129.204 29.362 128.244 29.0349 124.755 30.3435C122.595 31.1286 119.28 31.3249 117.557 30.7579C115.529 30.0818 114.068 28.0098 114.068 25.8069V25.1963H121.374H128.68L129.378 24.5638C130.055 23.9531 130.098 23.844 130.164 22.1646C130.338 18.6532 129.138 15.3816 127.001 13.4187C125.649 12.1755 124.755 11.6739 123.053 11.1723C121.614 10.7361 118.648 10.5398 117.23 10.8015ZM121.723 16.3195C122.465 16.6903 122.814 17.0828 123.293 17.9989C123.62 18.6314 123.882 19.4384 123.882 19.7873V20.398H118.975C115.202 20.398 114.068 20.3326 114.068 20.1145C114.068 19.5692 115.114 17.6499 115.725 17.0828C116.663 16.2104 117.732 15.8397 119.324 15.8179C120.414 15.8179 121.003 15.9487 121.723 16.3195Z" fill="#FFD7BE"/>
<path d="M141.003 10.7143C140.763 10.7579 140.022 10.9106 139.367 11.0414C135.442 11.8484 132.454 14.9673 131.363 19.4166C130.883 21.4886 130.861 26.0687 131.363 28.0971C132.105 31.1069 134.046 33.855 136.27 35.0763C139.52 36.843 144.798 36.6903 148.397 34.7274C150.164 33.7677 150.796 32.6554 150.643 30.8015C150.425 28.2279 149.269 27.7917 146.914 29.3402C144.951 30.6052 144.013 30.9324 142.421 30.9324C138.975 30.9542 137.317 28.5769 137.317 23.6696C137.339 19.8092 138.255 17.5191 140.24 16.5158C142.072 15.5998 144.188 15.9488 146.696 17.5627C148.222 18.5878 149.291 18.7187 149.967 17.9771C150.294 17.6063 150.382 17.1919 150.382 15.8179C150.382 14.2039 150.338 14.0513 149.727 13.4188C148.855 12.5027 147.481 11.7176 145.911 11.2159C144.624 10.8233 141.81 10.518 141.003 10.7143Z" fill="#FFD7BE"/>
<path d="M32.2764 11.1211C28.9613 12.0153 26.7585 13.8037 25.2754 16.8354C23.2688 20.9357 23.2688 26.8027 25.2972 30.8375C27.1728 34.5671 31.5349 36.6609 36.813 36.3555C40.5861 36.1374 44.1194 35.1124 44.9482 33.9782C45.4498 33.3021 45.6679 31.5355 45.3408 30.7067C45.2317 30.3795 44.861 29.9433 44.5556 29.747C43.9885 29.3763 43.9013 29.3981 41.4586 30.2269C39.1903 30.9684 38.7105 31.0557 36.7257 31.0775C34.1739 31.0775 33.1925 30.7939 31.9929 29.7252C31.0987 28.9182 30.2699 27.0862 30.2699 25.9521V25.2977H37.4237C44.163 25.2977 44.5992 25.2759 45.2754 24.8615C46.2786 24.2509 46.4749 23.5747 46.3441 21.0447C46.126 16.1156 43.8577 12.7787 39.6919 11.3174C37.8162 10.6413 34.3484 10.554 32.2764 11.1211ZM38.0343 12.0153C41.8293 12.7132 44.4248 15.4395 45.1009 19.3872C45.3844 21.0447 45.319 23.0949 44.9918 23.1822C44.8828 23.204 45.9733 22.855 45.8642 22.2007C45.777 21.5464 45.2099 20.1287 45.1009 19.3872C44.7083 16.6609 42.8926 13.5039 40.3844 12.3479C39.2939 11.8463 38.5633 11.6772 36.295 11.6118C33.9177 11.5246 32.3637 12.1734 30.8152 12.6751C28.6123 13.4166 28.9177 13.7819 30.7061 12.9095C32.9089 11.819 35.3517 11.5137 38.0343 12.0153ZM36.5949 15.9193C37.2274 16.0502 38.0998 16.3992 38.5142 16.7045C39.3212 17.337 40.0627 18.7329 40.0845 19.6707V20.2814H35.1554H30.2481L30.4008 19.7798C31.0115 17.795 32.2546 16.4646 33.9122 16.0066C35.2208 15.6576 35.2208 15.6576 36.5949 15.9193ZM29.2448 17.5824C28.4542 17.168 28.3942 19.8016 28.3942 20.2814L27.8708 21.7427L35.1554 22.8168C40.7606 22.8168 37.4155 22.2573 37.35 22.6063C37.2846 22.9771 40.5861 22.1353 35.3953 22.2007C32.2764 22.2225 29.1358 20.5104 28.874 20.445C27.8272 20.1832 29.2448 20.2814 29.114 18.7983C29.5284 18.144 29.5502 16.819 29.2448 17.5824ZM27.8708 22.8168C27.8708 24.3436 25.2426 27.9913 26.3986 28.951C26.5731 29.1036 31.7966 32.8768 32.4509 33.204C33.5633 33.7492 34.3048 33.2258 36.7257 33.204C39.1467 33.1822 40.0627 33.5856 42.1783 32.8441C44.2721 32.1244 41.9166 33.6511 42.1783 33.9782C42.6799 34.6543 44.3811 33.1931 43.8141 32.8441C43.6832 32.7569 43.5742 32.4515 43.5742 32.168C43.5742 31.4046 43.2688 31.3392 42.1783 31.819C39.1467 33.1494 34.5011 33.3021 32.1456 32.1462C29.9864 31.0993 28.7868 29.18 28.3942 26.1483C28.307 25.5813 28.3288 24.927 28.3942 24.7089C28.5469 24.3381 28.5687 24.3381 28.874 24.7307C29.0485 24.9706 27.8708 22.3806 27.8708 22.8168Z" fill="#FF6000"/>
<path d="M79.8255 10.9543C77.0338 11.4341 73.8059 12.8081 73.1298 13.8332C72.5627 14.6838 72.6063 16.6903 73.1952 17.4973C73.8931 18.4352 74.7656 18.4134 76.8593 17.3883C79.0404 16.3196 80.5671 15.9488 82.3119 16.0797C84.7765 16.276 85.6052 17.0829 85.8452 19.4821L85.9978 20.7689L83.4024 20.8997C77.1647 21.1833 73.7405 22.7754 72.2356 26.0469C71.7776 27.0502 71.6685 27.5737 71.6903 29.0131C71.6903 30.06 71.843 31.1505 72.0611 31.7176C73.675 36.0578 79.8692 37.8245 84.9728 35.4254C86.5213 34.7056 86.5867 34.6838 86.5867 35.12C86.5867 35.9488 88.8986 36.5377 90.4689 36.1015C92.1265 35.6653 92.0829 35.9706 91.9957 25.9161C91.9302 17.2574 91.9084 16.9739 91.4286 15.7961C90.4253 13.2879 88.4842 11.7612 85.4526 11.1505C83.904 10.8234 81.1341 10.7361 79.8255 10.9543ZM85.2999 12.1974C87.2192 12.6118 88.3315 13.2007 89.2694 14.313C90.7743 16.0578 90.7961 16.2323 90.9051 25.8943C90.9706 33.5279 90.9488 34.5529 90.6652 34.4439C91.494 34.6293 91.494 32.9826 91.4286 26.0469C91.3413 19.3512 91.4722 17.999 91.1668 17.1266C90.5998 15.3599 89.5692 13.5769 87.9771 12.7918C86.6249 12.1375 84.8855 12 82.3119 11.9346C79.9128 11.8692 79.2584 11.6958 77.4264 12.1974C76.2923 12.5028 74.1549 13.3588 74.7001 13.7732V14.1167L75.2454 13.6587C75.8561 13.1571 78.1025 12.3937 79.7165 12.132C81.4395 11.8485 83.7296 11.8703 85.2999 12.1974ZM86.7612 22.2956C86.6958 22.6445 88.8332 21.1887 85.8452 21.2978C82.4864 21.4286 76.0414 22.1865 75.7088 23.6696C74.3566 24.1276 75.2018 24.1931 76.0087 23.6696C77.6227 22.6009 80.6107 22.012 84.5802 21.9466C86.6303 21.9248 86.8266 21.9684 86.7612 22.2956ZM85.9324 27.2465V28.8605L85.0164 29.6674C83.8604 30.6707 83.1843 31.0197 81.9629 31.2814C79.6074 31.8048 77.7099 30.4962 77.928 28.5115C78.1461 26.505 79.8692 25.7416 84.3621 25.6544L85.9324 25.6325V27.2465ZM76.8157 28.3152C76.7067 29.7547 77.1211 30.8452 78.1243 31.6086C79.5202 32.6554 82.181 32.7645 83.9477 31.8485C84.7765 31.4341 84.9728 31.4341 84.602 31.8703C83.7296 32.939 90.4798 31.4286 88.7132 30.9488C87.6009 30.6435 83.6423 31.8703 78.8168 32.0099C78.446 31.1811 76.7939 28.2062 77.0992 27.5955C77.4918 26.8757 76.9248 27.1156 76.8157 28.3152Z" fill="#FF6000"/>
<path d="M0.567066 39.1767C0.0218103 39.6129 0 39.7002 0 41.7721C0 43.8441 0.0218103 43.9313 0.567066 44.3675L1.15594 44.8256H46.6521C81.7666 44.8256 92.2355 44.7601 92.4318 44.5638C92.8026 44.1931 92.8026 39.3512 92.4318 38.9804C92.2355 38.7841 81.7666 38.7187 46.6521 38.7187H1.15594L0.567066 39.1767ZM91.8212 43.3425L91.3413 42.9935C89.88 41.9248 92.4536 41.9902 46.3468 41.9902H3.24973L2.15921 40.9651C1.37405 40.2236 1.15594 39.8964 1.35224 39.7656C1.15594 44.8256 21.5267 41.9902 46.3468 41.9902L91.8212 43.3425Z" fill="#04A1FC"/>
<path d="M107.874 39.0677C107.59 39.3294 107.525 39.9183 107.525 41.7721C107.525 43.626 107.59 44.2149 107.874 44.4766C108.179 44.7819 111.45 44.8256 140.763 44.8256H173.326L173.915 44.3675C174.46 43.9313 174.482 43.8441 174.482 41.7721C174.482 39.7002 174.46 39.6129 173.915 39.1767L173.326 38.7187H140.763C111.45 38.7187 108.179 38.7623 107.874 39.0677ZM173.195 39.8092C173.544 40.0055 173.61 40.289 173.61 41.6631V43.2988L172.694 42.71L171.778 42.0993L141.287 41.9902L110.796 41.8812L109.662 40.7252L108.506 39.5911L109.662 42.71L140.763 41.9884C162.508 41.9884 179.171 46.8975 173.195 39.8092Z" fill="#04A1FC"/>
</svg>
